<svg xmlns="http://www.w3.org/2000/svg" viewBox="0 0 585.19 90.38"><g id="Layer_2" data-name="Layer 2"><g id="Layer_1-2" data-name="Layer 1"><rect x="47.04" y="18.52" width="475.23" height="54.87" rx="19.57" style="fill:#fff;stroke:#272525;stroke-miterlimit:10;stroke-width:6px"/><path d="M83,62.65q-4.61,0-4.61-4.56V33.37q0-4.56,4.61-4.56h9.41q8.78,0,13.63,4.42t4.85,12.48q0,8.06-4.85,12.5T92.44,62.65Zm4.22-7.15h4.61q5,0,7.47-2.42t2.42-7.37c0-3.3-.82-5.74-2.45-7.34S95.19,36,91.86,36H87.25Z" style="fill:#272525"/><path d="M136.73,63.18a18,18,0,0,1-9-2.18,15.44,15.44,0,0,1-6-6.12,18.77,18.77,0,0,1-2.16-9.17,18.93,18.93,0,0,1,2.14-9.19,15,15,0,0,1,6-6.07,19.81,19.81,0,0,1,18,0,15.22,15.22,0,0,1,6,6.07,18.72,18.72,0,0,1,2.16,9.19,18.77,18.77,0,0,1-2.16,9.17,15.48,15.48,0,0,1-6,6.12A18.06,18.06,0,0,1,136.73,63.18Zm0-7.39a7.13,7.13,0,0,0,5.88-2.67q2.13-2.65,2.13-7.41t-2.11-7.39a7.92,7.92,0,0,0-11.81,0c-1.4,1.76-2.11,4.22-2.11,7.39s.71,5.64,2.11,7.41A7.11,7.11,0,0,0,136.73,55.79Z" style="fill:#272525"/><path d="M165.66,62.65a4.33,4.33,0,0,1-3.38-1.24,4.11,4.11,0,0,1-1-3.17A7.18,7.18,0,0,1,163,54.35l14.55-18.29H165c-2.53,0-3.79-1.21-3.79-3.65s1.26-3.6,3.79-3.6h18.72a4.43,4.43,0,0,1,3.41,1.25,4,4,0,0,1,1,3.17,7.22,7.22,0,0,1-1.75,3.89L171.76,55.41h13.39q3.79,0,3.79,3.59c0,2.44-1.26,3.65-3.79,3.65Z" style="fill:#272525"/><path d="M202.18,62.65c-3.08,0-4.61-1.52-4.61-4.56V33.37c0-3,1.53-4.56,4.61-4.56h16.27q3.45,0,3.45,3.36t-3.45,3.46H206v6.43h11.37q3.47,0,3.46,3.41t-3.46,3.41H206v7h12.43q3.45,0,3.45,3.4c0,2.28-1.15,3.41-3.45,3.41Z" style="fill:#272525"/><path d="M236.14,63.08c-2.76,0-4.13-1.39-4.13-4.17V32.75a4.58,4.58,0,0,1,1.05-3.24,3.67,3.67,0,0,1,2.79-1.13,4.11,4.11,0,0,1,2.37.58,10.08,10.08,0,0,1,1.95,1.92L254,48.2V32.51q0-4.12,4.08-4.13a4,4,0,0,1,3.05,1.08,4.23,4.23,0,0,1,1,3V59.1a4.19,4.19,0,0,1-1,2.9,3.3,3.3,0,0,1-2.59,1.08,4.92,4.92,0,0,1-2.57-.57,8.14,8.14,0,0,1-2-1.92L240.22,43.26V58.91Q240.22,63.08,236.14,63.08Z" style="fill:#272525"/><path d="M277.91,63.08a4.41,4.41,0,0,1-3.26-1.15,4.55,4.55,0,0,1-1.15-3.36V32.89a4.55,4.55,0,0,1,1.15-3.36,5.21,5.21,0,0,1,6.53,0,4.55,4.55,0,0,1,1.15,3.36v9h14v-9a4.55,4.55,0,0,1,1.15-3.36,4.41,4.41,0,0,1,3.26-1.15A4.32,4.32,0,0,1,304,29.53a4.58,4.58,0,0,1,1.13,3.36V58.57A4.58,4.58,0,0,1,304,61.93a4.32,4.32,0,0,1-3.24,1.15,4.37,4.37,0,0,1-3.28-1.15,4.58,4.58,0,0,1-1.13-3.36V49.12h-14v9.45a4.63,4.63,0,0,1-1.13,3.36A4.39,4.39,0,0,1,277.91,63.08Z" style="fill:#272525"/><path d="M317.32,63.08A3.47,3.47,0,0,1,314,57.71L326,32a6.64,6.64,0,0,1,2.11-2.74,5.08,5.08,0,0,1,2.93-.86,5,5,0,0,1,2.88.86A6.56,6.56,0,0,1,336,32l12,25.73c.73,1.57.76,2.86.09,3.86a3.53,3.53,0,0,1-3.17,1.51,4.46,4.46,0,0,1-2.95-.86,7.29,7.29,0,0,1-1.85-2.78l-1.53-3.65H323.42l-1.54,3.65a8.83,8.83,0,0,1-1.77,2.78A3.92,3.92,0,0,1,317.32,63.08Zm13.59-25L326.3,49h9.31L331,38Z" style="fill:#272525"/><path d="M372.59,63.18A20.16,20.16,0,0,1,362.94,61a14.81,14.81,0,0,1-6.17-6.1,19,19,0,0,1-2.13-9.21,18.93,18.93,0,0,1,2.13-9.19,14.8,14.8,0,0,1,6.17-6.07,20,20,0,0,1,9.65-2.17,21.78,21.78,0,0,1,4.58.51,14.86,14.86,0,0,1,4.2,1.51,4.12,4.12,0,0,1,1.87,1.82,4,4,0,0,1,.39,2.26,4.3,4.3,0,0,1-.84,2.07A3.44,3.44,0,0,1,381,37.67a3.13,3.13,0,0,1-2.31-.31,13,13,0,0,0-5.81-1.4q-4.46,0-6.72,2.53T364,45.71q0,4.76,2.25,7.27t6.72,2.52a12.89,12.89,0,0,0,5.52-1.3,4,4,0,0,1,2.57-.33A3.49,3.49,0,0,1,382.86,55a4,4,0,0,1,.89,2,4,4,0,0,1-.31,2.23A3.7,3.7,0,0,1,381.66,61a14.62,14.62,0,0,1-4.15,1.59A21.86,21.86,0,0,1,372.59,63.18Z" style="fill:#272525"/><path d="M397.53,63.08a4.38,4.38,0,0,1-3.26-1.15,4.48,4.48,0,0,1-1.16-3.31V32.84a4.49,4.49,0,0,1,1.16-3.31,5.2,5.2,0,0,1,6.52,0,4.49,4.49,0,0,1,1.15,3.31V43.31h.1l11.67-12.86a7.6,7.6,0,0,1,1.94-1.52,5,5,0,0,1,2.33-.55,3.69,3.69,0,0,1,2.88,1,3.21,3.21,0,0,1,.81,2.43,4,4,0,0,1-1.1,2.49l-10,10.56,10.57,12a4.27,4.27,0,0,1,1.24,2.84,3.24,3.24,0,0,1-1,2.42,4,4,0,0,1-2.89,1,4.81,4.81,0,0,1-2.63-.64,10,10,0,0,1-2.12-1.95L402,47.39h-.1V58.62a4.54,4.54,0,0,1-1.12,3.31A4.41,4.41,0,0,1,397.53,63.08Z" style="fill:#272525"/><path d="M435.85,62.65c-3.08,0-4.61-1.52-4.61-4.56V33.37c0-3,1.53-4.56,4.61-4.56h16.27c2.3,0,3.46,1.12,3.46,3.36s-1.16,3.46-3.46,3.46H439.69v6.43h11.37q3.46,0,3.46,3.41t-3.46,3.41H439.69v7h12.43c2.3,0,3.46,1.13,3.46,3.4s-1.16,3.41-3.46,3.41Z" style="fill:#272525"/><path d="M470,63.08a4.42,4.42,0,0,1-3.27-1.15,4.51,4.51,0,0,1-1.15-3.31V33.28A4.54,4.54,0,0,1,466.74,30a4.54,4.54,0,0,1,3.32-1.15h11.8q5.76,0,8.91,2.81a9.93,9.93,0,0,1,3.14,7.8A10.43,10.43,0,0,1,492,45.78a9.91,9.91,0,0,1-5.5,3.58,7,7,0,0,1,4.32,3.69l2.4,4.32a5.3,5.3,0,0,1,.7,2.74,2.94,2.94,0,0,1-1,2.13,4.18,4.18,0,0,1-2.83.84,5.6,5.6,0,0,1-3.05-.74,6.26,6.26,0,0,1-2.08-2.42l-4.37-8a3.23,3.23,0,0,0-1.47-1.46,4.86,4.86,0,0,0-2-.41h-2.64v8.59a4.54,4.54,0,0,1-1.12,3.31A4.41,4.41,0,0,1,470,63.08Zm4.41-19.29h5.86q5.24,0,5.23-4.13t-5.23-4.08h-5.86Z" style="fill:#272525"/><rect width="585.19" height="90.38" style="fill:none"/></g></g></svg>