<?xml version="1.0" encoding="UTF-8"?>
<svg id="Layer_2" data-name="Layer 2" xmlns="http://www.w3.org/2000/svg" viewBox="0 0 186.53 49.78">
  <defs>
    <style>
      .cls-1 {
        fill: #ec297b;
      }

      .cls-2 {
        fill: #fff;
      }

      .cls-3 {
        fill: #ec1c24;
      }

      .cls-4 {
        fill: #ec1e24;
      }
    </style>
  </defs>
  <g id="Layer_1-2" data-name="Layer 1">
    <g>
      <g>
        <path class="cls-1" d="M32.83,37.89c-.52,0-.92-.13-1.19-.41-.27-.27-.41-.67-.41-1.19v-8.51c0-.52.13-.92.41-1.19.27-.27.67-.41,1.19-.41h3.23c2.03,0,3.61.51,4.72,1.53,1.11,1.02,1.67,2.45,1.67,4.31,0,.94-.14,1.77-.42,2.49-.28.72-.69,1.33-1.24,1.83-.54.5-1.21.88-2,1.14-.79.26-1.7.39-2.73.39h-3.23ZM34.29,35.42h1.59c.59,0,1.09-.07,1.52-.22.43-.14.78-.35,1.06-.63.28-.28.49-.62.63-1.04.14-.42.21-.92.21-1.49,0-1.14-.28-1.98-.85-2.54-.56-.55-1.42-.83-2.57-.83h-1.59v6.75Z"/>
        <path class="cls-1" d="M51.16,38.09c-1.18,0-2.22-.25-3.11-.76-.89-.51-1.59-1.22-2.09-2.12-.5-.91-.75-1.96-.75-3.17,0-.92.14-1.74.42-2.48s.69-1.37,1.22-1.89c.53-.52,1.16-.93,1.89-1.23s1.54-.44,2.42-.44c1.18,0,2.22.25,3.12.75.9.5,1.59,1.21,2.08,2.11.49.9.74,1.96.74,3.17,0,.91-.14,1.73-.42,2.47-.28.74-.69,1.38-1.21,1.91-.53.53-1.15.94-1.88,1.24s-1.54.44-2.42.44ZM51.16,35.52c.58,0,1.08-.14,1.49-.42.41-.28.72-.67.95-1.19.22-.52.33-1.14.33-1.87,0-1.08-.24-1.93-.73-2.54s-1.17-.92-2.04-.92c-.58,0-1.07.13-1.48.41-.41.27-.74.67-.96,1.19s-.34,1.14-.34,1.87c0,1.09.25,1.95.75,2.56.5.61,1.18.92,2.04.92Z"/>
        <path class="cls-1" d="M60.97,37.89c-.39,0-.7-.09-.95-.26-.25-.17-.42-.4-.51-.67s-.09-.58,0-.92.27-.68.55-1.02l5.72-7.2v.88h-5.04c-.42,0-.74-.11-.97-.32-.23-.21-.34-.53-.34-.94s.11-.72.34-.93.55-.31.97-.31h6.47c.39,0,.7.08.95.26.25.17.42.4.51.67.09.28.09.58,0,.92-.09.34-.27.68-.55,1.02l-5.72,7.2v-.88h5.31c.42,0,.74.11.96.32.22.22.33.53.33.94s-.11.7-.33.92c-.22.22-.54.32-.96.32h-6.73Z"/>
        <path class="cls-1" d="M73.09,37.89c-.52,0-.92-.13-1.19-.41-.27-.27-.41-.67-.41-1.19v-8.51c0-.52.13-.92.41-1.19.27-.27.67-.41,1.19-.41h5.64c.38,0,.67.1.87.3.2.2.31.49.31.86s-.1.68-.31.89c-.21.2-.5.31-.87.31h-4.33v2.22h3.95c.39,0,.68.1.88.3.2.2.3.49.3.88s-.1.67-.3.87c-.2.2-.49.31-.88.31h-3.95v2.4h4.33c.38,0,.67.1.87.31.2.21.31.5.31.87s-.1.68-.31.88c-.21.2-.5.3-.87.3h-5.64Z"/>
        <path class="cls-1" d="M84.35,38.06c-.46,0-.82-.13-1.06-.38-.24-.25-.36-.61-.36-1.08v-9.05c0-.48.12-.85.36-1.11.24-.26.57-.4.98-.4.34,0,.61.07.81.21.2.14.42.36.66.67l5.26,6.57h-.46v-6c0-.45.12-.81.36-1.06.24-.25.59-.38,1.05-.38s.82.13,1.06.38c.24.25.37.61.37,1.06v9.19c0,.41-.11.74-.34,1-.23.26-.53.39-.9.39s-.67-.07-.89-.21c-.22-.14-.45-.36-.71-.67l-5.24-6.58h.46v6c0,.46-.12.82-.36,1.08-.24.25-.59.38-1.05.38Z"/>
        <path class="cls-1" d="M98.28,38.06c-.5,0-.88-.14-1.14-.42-.26-.28-.4-.66-.4-1.16v-8.87c0-.5.13-.88.4-1.16.27-.28.65-.41,1.14-.41s.85.14,1.11.41c.27.28.4.66.4,1.16v3.12h4.83v-3.12c0-.5.13-.88.4-1.16.27-.28.64-.41,1.11-.41s.88.14,1.14.41.39.66.39,1.16v8.87c0,.5-.13.88-.39,1.16s-.64.42-1.14.42-.85-.14-1.11-.42c-.26-.28-.4-.66-.4-1.16v-3.27h-4.83v3.27c0,.5-.13.88-.39,1.16s-.63.42-1.12.42Z"/>
        <path class="cls-1" d="M111.56,38.06c-.34,0-.63-.08-.86-.25s-.38-.39-.43-.67c-.06-.28,0-.6.15-.95l4.13-8.89c.2-.43.44-.75.73-.95.29-.2.62-.31,1.01-.31s.71.1.99.31c.28.2.52.52.72.95l4.15,8.89c.17.35.22.67.17.96s-.19.51-.41.67-.5.24-.85.24c-.42,0-.75-.11-1-.32s-.46-.54-.65-.98l-.9-2.09,1.18.86h-6.85l1.16-.86-.9,2.09c-.19.45-.39.78-.6.99-.21.2-.53.31-.96.31ZM116.25,29.38l-1.92,4.59-.46-.8h4.83l-.48.8-1.92-4.59h-.03Z"/>
        <path class="cls-1" d="M130.53,38.09c-1.29,0-2.4-.25-3.33-.75-.93-.5-1.64-1.2-2.15-2.11-.5-.9-.75-1.96-.75-3.19,0-.92.14-1.74.42-2.48s.69-1.37,1.24-1.89c.54-.52,1.2-.93,1.96-1.23s1.64-.44,2.61-.44c.5,0,1.02.06,1.57.18.55.12,1.03.29,1.45.51.32.17.54.38.65.64s.16.52.12.8c-.04.27-.14.51-.29.71-.16.2-.35.35-.6.42s-.51.04-.81-.12c-.32-.17-.65-.28-.98-.36-.33-.07-.67-.11-1.03-.11-.67,0-1.24.13-1.7.39-.46.26-.8.64-1.04,1.13-.23.49-.35,1.1-.35,1.83s.12,1.34.35,1.84c.23.5.58.88,1.04,1.14.46.26,1.03.39,1.7.39.31,0,.63-.03.95-.1.33-.07.65-.18.97-.33.32-.14.61-.19.88-.12.26.06.48.19.64.4.16.2.26.44.31.7.04.26,0,.52-.11.77-.12.25-.32.46-.61.61-.39.23-.86.42-1.43.56-.57.14-1.13.21-1.68.21Z"/>
        <path class="cls-1" d="M138.8,38.06c-.5,0-.88-.14-1.14-.42-.26-.28-.4-.66-.4-1.14v-8.9c0-.51.13-.9.4-1.16.27-.26.65-.4,1.14-.4s.85.13,1.11.4.4.65.4,1.16v3.61h.03l4.03-4.44c.21-.22.43-.4.67-.52.24-.13.51-.19.8-.19.45,0,.79.12,1,.36s.31.51.29.83c-.02.31-.15.61-.41.87l-4,4.26.02-1.26,4.2,4.76c.29.33.43.67.43,1s-.12.62-.35.85c-.23.23-.56.34-.99.34-.38,0-.68-.08-.9-.23s-.47-.38-.72-.68l-4.06-4.54h-.03v3.9c0,.49-.13.87-.39,1.14s-.63.42-1.12.42Z"/>
        <path class="cls-1" d="M151.9,37.89c-.52,0-.92-.13-1.19-.41-.27-.27-.41-.67-.41-1.19v-8.51c0-.52.13-.92.41-1.19.27-.27.67-.41,1.19-.41h5.64c.38,0,.67.1.87.3.2.2.31.49.31.86s-.1.68-.31.89c-.21.2-.5.31-.87.31h-4.33v2.22h3.95c.39,0,.68.1.88.3.2.2.3.49.3.88s-.1.67-.3.87c-.2.2-.49.31-.88.31h-3.95v2.4h4.33c.38,0,.67.1.87.31.2.21.31.5.31.87s-.1.68-.31.88c-.21.2-.5.3-.87.3h-5.64Z"/>
        <path class="cls-1" d="M163.28,38.06c-.5,0-.88-.14-1.14-.42-.26-.28-.4-.66-.4-1.14v-8.74c0-.51.13-.9.41-1.16.27-.27.65-.4,1.15-.4h4.08c1.32,0,2.33.32,3.05.97s1.08,1.54,1.08,2.69c0,.75-.16,1.4-.48,1.94-.32.54-.79.96-1.41,1.25s-1.37.44-2.24.44l.12-.3h.81c.46,0,.88.11,1.24.34.36.23.67.57.91,1.04l.81,1.49c.19.33.27.65.26.95s-.13.55-.35.75c-.21.2-.55.3-1,.3-.42,0-.77-.09-1.04-.27-.27-.18-.51-.45-.72-.83l-1.51-2.8c-.13-.23-.3-.4-.51-.49-.2-.09-.44-.14-.7-.14h-.91v2.97c0,.49-.13.87-.39,1.14s-.63.42-1.12.42ZM164.79,31.37h2.02c.59,0,1.03-.12,1.33-.35.3-.23.46-.59.46-1.06s-.15-.85-.46-1.08c-.3-.23-.75-.35-1.33-.35h-2.02v2.83Z"/>
      </g>
      <path class="cls-2" d="M29.26,46.42c-7.18-.81-13.01-7.33-13.01-14.37v-2.96c.11,0,.22,0,.34,0,1.34-5.74,6.51-10.76,12.68-11.4,47.98-4.48,96.28-4.48,144.26,0,7.18.81,13.01,7.33,13.01,14.37,0,7.04-5.83,13.56-13.01,14.37-47.98,4.48-96.28,4.48-144.26,0Z"/>
      <path class="cls-3" d="M18.24,32.05c0,6.55,5.38,12.38,12.03,12.92,47.36,3.19,94.87,3.19,142.23,0,6.65-.54,12.03-6.37,12.03-12.92,0-6.55-5.38-12.38-12.03-12.92-47.36-3.19-94.87-3.19-142.23,0-6.65.54-12.03,6.37-12.03,12.92,0,0,0-6.65,0,0Z"/>
      <g>
        <path class="cls-2" d="M32.83,37.89c-.52,0-.92-.13-1.19-.41-.27-.27-.41-.67-.41-1.19v-8.51c0-.52.13-.92.41-1.19.27-.27.67-.41,1.19-.41h3.23c2.03,0,3.61.51,4.72,1.53,1.11,1.02,1.67,2.45,1.67,4.31,0,.94-.14,1.77-.42,2.49-.28.72-.69,1.33-1.24,1.83-.54.5-1.21.88-2,1.14-.79.26-1.7.39-2.73.39h-3.23ZM34.29,35.42h1.59c.59,0,1.09-.07,1.52-.22.43-.14.78-.35,1.06-.63.28-.28.49-.62.63-1.04.14-.42.21-.92.21-1.49,0-1.14-.28-1.98-.85-2.54-.56-.55-1.42-.83-2.57-.83h-1.59v6.75Z"/>
        <path class="cls-2" d="M51.16,38.09c-1.18,0-2.22-.25-3.11-.76-.89-.51-1.59-1.22-2.09-2.12-.5-.91-.75-1.96-.75-3.17,0-.92.14-1.74.42-2.48s.69-1.37,1.22-1.89c.53-.52,1.16-.93,1.89-1.23s1.54-.44,2.42-.44c1.18,0,2.22.25,3.12.75.9.5,1.59,1.21,2.08,2.11.49.9.74,1.96.74,3.17,0,.91-.14,1.73-.42,2.47-.28.74-.69,1.38-1.21,1.91-.53.53-1.15.94-1.88,1.24s-1.54.44-2.42.44ZM51.16,35.52c.58,0,1.08-.14,1.49-.42.41-.28.72-.67.95-1.19.22-.52.33-1.14.33-1.87,0-1.08-.24-1.93-.73-2.54s-1.17-.92-2.04-.92c-.58,0-1.07.13-1.48.41-.41.27-.74.67-.96,1.19s-.34,1.14-.34,1.87c0,1.09.25,1.95.75,2.56.5.61,1.18.92,2.04.92Z"/>
        <path class="cls-2" d="M60.97,37.89c-.39,0-.7-.09-.95-.26-.25-.17-.42-.4-.51-.67s-.09-.58,0-.92.27-.68.55-1.02l5.72-7.2v.88h-5.04c-.42,0-.74-.11-.97-.32-.23-.21-.34-.53-.34-.94s.11-.72.34-.93.55-.31.97-.31h6.47c.39,0,.7.08.95.26.25.17.42.4.51.67.09.28.09.58,0,.92-.09.34-.27.68-.55,1.02l-5.72,7.2v-.88h5.31c.42,0,.74.11.96.32.22.22.33.53.33.94s-.11.7-.33.92c-.22.22-.54.32-.96.32h-6.73Z"/>
        <path class="cls-2" d="M73.09,37.89c-.52,0-.92-.13-1.19-.41-.27-.27-.41-.67-.41-1.19v-8.51c0-.52.13-.92.41-1.19.27-.27.67-.41,1.19-.41h5.64c.38,0,.67.1.87.3.2.2.31.49.31.86s-.1.68-.31.89c-.21.2-.5.31-.87.31h-4.33v2.22h3.95c.39,0,.68.1.88.3.2.2.3.49.3.88s-.1.67-.3.87c-.2.2-.49.31-.88.31h-3.95v2.4h4.33c.38,0,.67.1.87.31.2.21.31.5.31.87s-.1.68-.31.88c-.21.2-.5.3-.87.3h-5.64Z"/>
        <path class="cls-2" d="M84.35,38.06c-.46,0-.82-.13-1.06-.38-.24-.25-.36-.61-.36-1.08v-9.05c0-.48.12-.85.36-1.11.24-.26.57-.4.98-.4.34,0,.61.07.81.21.2.14.42.36.66.67l5.26,6.57h-.46v-6c0-.45.12-.81.36-1.06.24-.25.59-.38,1.05-.38s.82.13,1.06.38c.24.25.37.61.37,1.06v9.19c0,.41-.11.74-.34,1-.23.26-.53.39-.9.39s-.67-.07-.89-.21c-.22-.14-.45-.36-.71-.67l-5.24-6.58h.46v6c0,.46-.12.82-.36,1.08-.24.25-.59.38-1.05.38Z"/>
        <path class="cls-2" d="M98.28,38.06c-.5,0-.88-.14-1.14-.42-.26-.28-.4-.66-.4-1.16v-8.87c0-.5.13-.88.4-1.16.27-.28.65-.41,1.14-.41s.85.14,1.11.41c.27.28.4.66.4,1.16v3.12h4.83v-3.12c0-.5.13-.88.4-1.16.27-.28.64-.41,1.11-.41s.88.14,1.14.41.39.66.39,1.16v8.87c0,.5-.13.88-.39,1.16s-.64.42-1.14.42-.85-.14-1.11-.42c-.26-.28-.4-.66-.4-1.16v-3.27h-4.83v3.27c0,.5-.13.88-.39,1.16s-.63.42-1.12.42Z"/>
        <path class="cls-2" d="M111.56,38.06c-.34,0-.63-.08-.86-.25s-.38-.39-.43-.67c-.06-.28,0-.6.15-.95l4.13-8.89c.2-.43.44-.75.73-.95.29-.2.62-.31,1.01-.31s.71.1.99.31c.28.2.52.52.72.95l4.15,8.89c.17.35.22.67.17.96s-.19.51-.41.67-.5.24-.85.24c-.42,0-.75-.11-1-.32s-.46-.54-.65-.98l-.9-2.09,1.18.86h-6.85l1.16-.86-.9,2.09c-.19.45-.39.78-.6.99-.21.2-.53.31-.96.31ZM116.25,29.38l-1.92,4.59-.46-.8h4.83l-.48.8-1.92-4.59h-.03Z"/>
        <path class="cls-2" d="M130.53,38.09c-1.29,0-2.4-.25-3.33-.75-.93-.5-1.64-1.2-2.15-2.11-.5-.9-.75-1.96-.75-3.19,0-.92.14-1.74.42-2.48s.69-1.37,1.24-1.89c.54-.52,1.2-.93,1.96-1.23s1.64-.44,2.61-.44c.5,0,1.02.06,1.57.18.55.12,1.03.29,1.45.51.32.17.54.38.65.64s.16.52.12.8c-.04.27-.14.51-.29.71-.16.2-.35.35-.6.42s-.51.04-.81-.12c-.32-.17-.65-.28-.98-.36-.33-.07-.67-.11-1.03-.11-.67,0-1.24.13-1.7.39-.46.26-.8.64-1.04,1.13-.23.49-.35,1.1-.35,1.83s.12,1.34.35,1.84c.23.5.58.88,1.04,1.14.46.26,1.03.39,1.7.39.31,0,.63-.03.95-.1.33-.07.65-.18.97-.33.32-.14.61-.19.88-.12.26.06.48.19.64.4.16.2.26.44.31.7.04.26,0,.52-.11.77-.12.25-.32.46-.61.61-.39.23-.86.42-1.43.56-.57.14-1.13.21-1.68.21Z"/>
        <path class="cls-2" d="M138.8,38.06c-.5,0-.88-.14-1.14-.42-.26-.28-.4-.66-.4-1.14v-8.9c0-.51.13-.9.4-1.16.27-.26.65-.4,1.14-.4s.85.13,1.11.4.4.65.4,1.16v3.61h.03l4.03-4.44c.21-.22.43-.4.67-.52.24-.13.51-.19.8-.19.45,0,.79.12,1,.36s.31.51.29.83c-.02.31-.15.61-.41.87l-4,4.26.02-1.26,4.2,4.76c.29.33.43.67.43,1s-.12.62-.35.85c-.23.23-.56.34-.99.34-.38,0-.68-.08-.9-.23s-.47-.38-.72-.68l-4.06-4.54h-.03v3.9c0,.49-.13.87-.39,1.14s-.63.42-1.12.42Z"/>
        <path class="cls-2" d="M151.9,37.89c-.52,0-.92-.13-1.19-.41-.27-.27-.41-.67-.41-1.19v-8.51c0-.52.13-.92.41-1.19.27-.27.67-.41,1.19-.41h5.64c.38,0,.67.1.87.3.2.2.31.49.31.86s-.1.68-.31.89c-.21.2-.5.31-.87.31h-4.33v2.22h3.95c.39,0,.68.1.88.3.2.2.3.49.3.88s-.1.67-.3.87c-.2.2-.49.31-.88.31h-3.95v2.4h4.33c.38,0,.67.1.87.31.2.21.31.5.31.87s-.1.68-.31.88c-.21.2-.5.3-.87.3h-5.64Z"/>
        <path class="cls-2" d="M163.28,38.06c-.5,0-.88-.14-1.14-.42-.26-.28-.4-.66-.4-1.14v-8.74c0-.51.13-.9.41-1.16.27-.27.65-.4,1.15-.4h4.08c1.32,0,2.33.32,3.05.97s1.08,1.54,1.08,2.69c0,.75-.16,1.4-.48,1.94-.32.54-.79.96-1.41,1.25s-1.37.44-2.24.44l.12-.3h.81c.46,0,.88.11,1.24.34.36.23.67.57.91,1.04l.81,1.49c.19.33.27.65.26.95s-.13.55-.35.75c-.21.2-.55.3-1,.3-.42,0-.77-.09-1.04-.27-.27-.18-.51-.45-.72-.83l-1.51-2.8c-.13-.23-.3-.4-.51-.49-.2-.09-.44-.14-.7-.14h-.91v2.97c0,.49-.13.87-.39,1.14s-.63.42-1.12.42ZM164.79,31.37h2.02c.59,0,1.03-.12,1.33-.35.3-.23.46-.59.46-1.06s-.15-.85-.46-1.08c-.3-.23-.75-.35-1.33-.35h-2.02v2.83Z"/>
      </g>
    </g>
    <g>
      <path class="cls-4" d="M12.83,47c-.5,0-1-.05-1.5-.14-2.08-.4-3.88-1.58-5.08-3.34-1.19-1.75-1.63-3.87-1.23-5.95.35-1.85,1.33-3.47,2.76-4.64L1.36,14.41c-.08-.3-1.42-5.56,1.6-9.47,2.02-2.62,5.44-3.94,10.17-3.94,2.03,0,4.33.25,6.85.74,7.92,1.54,12.76,4.44,14.37,8.6,1.93,5-1.56,9.79-1.71,9.99l-12.87,14.89c.9,1.62,1.21,3.49.85,5.34-.72,3.74-3.99,6.45-7.79,6.45,0,0,0,0,0,0Z"/>
      <path class="cls-2" d="M13.13,2c1.89,0,4.09.22,6.66.72,21.56,4.21,12.05,17.01,12.05,17.01l-13.3,15.39c1.02,1.48,1.47,3.34,1.11,5.25-.64,3.32-3.54,5.63-6.81,5.63-.43,0-.87-.04-1.31-.13-3.76-.72-6.23-4.36-5.51-8.12.36-1.9,1.47-3.47,2.97-4.47L2.31,14.08S-.87,2,13.13,2M13.13,0C8.07,0,4.38,1.46,2.17,4.33-1.14,8.63.31,14.35.37,14.59l.02.08.03.07,6.21,17.89c-1.33,1.27-2.23,2.92-2.58,4.76-.45,2.34.04,4.72,1.38,6.7s3.37,3.31,5.71,3.76c.56.11,1.13.16,1.69.16,4.28,0,7.97-3.05,8.77-7.26.35-1.84.13-3.71-.64-5.38l12.38-14.32.05-.06.04-.06c.16-.22,3.97-5.44,1.84-10.95-1.75-4.51-6.83-7.61-15.11-9.22-2.58-.5-4.95-.76-7.04-.76h0Z"/>
    </g>
  </g>
</svg>